<mxfile host="Electron" modified="2023-08-09T17:46:24.054Z" agent="Mozilla/5.0 (X11; Linux x86_64) AppleWebKit/537.36 (KHTML, like Gecko) draw.io/21.6.5 Chrome/114.0.5735.243 Electron/25.3.1 Safari/537.36" etag="YxmY-7M559rBOjxrk9zP" version="21.6.5" type="device">
  <diagram id="C5RBs43oDa-KdzZeNtuy" name="Page-1">
    <mxGraphModel dx="1562" dy="1078" grid="1" gridSize="10" guides="1" tooltips="1" connect="1" arrows="1" fold="1" page="1" pageScale="1" pageWidth="827" pageHeight="1169" math="0" shadow="0">
      <root>
        <mxCell id="WIyWlLk6GJQsqaUBKTNV-0" />
        <mxCell id="WIyWlLk6GJQsqaUBKTNV-1" parent="WIyWlLk6GJQsqaUBKTNV-0" />
        <mxCell id="WpmsXWC_hY4c3spOvaGo-23" style="edgeStyle=orthogonalEdgeStyle;rounded=0;orthogonalLoop=1;jettySize=auto;html=1;exitX=1;exitY=0.5;exitDx=0;exitDy=0;entryX=0;entryY=0.5;entryDx=0;entryDy=0;" edge="1" parent="WIyWlLk6GJQsqaUBKTNV-1" source="WpmsXWC_hY4c3spOvaGo-0" target="WpmsXWC_hY4c3spOvaGo-4">
          <mxGeometry relative="1" as="geometry" />
        </mxCell>
        <mxCell id="WpmsXWC_hY4c3spOvaGo-0" value="LTERUnitAnalysis1.r" style="ellipse;whiteSpace=wrap;html=1;" vertex="1" parent="WIyWlLk6GJQsqaUBKTNV-1">
          <mxGeometry x="320" y="20" width="200" height="80" as="geometry" />
        </mxCell>
        <mxCell id="WpmsXWC_hY4c3spOvaGo-39" style="edgeStyle=orthogonalEdgeStyle;rounded=0;orthogonalLoop=1;jettySize=auto;html=1;exitX=0.5;exitY=1;exitDx=0;exitDy=0;entryX=0.5;entryY=0;entryDx=0;entryDy=0;curved=1;" edge="1" parent="WIyWlLk6GJQsqaUBKTNV-1" source="WpmsXWC_hY4c3spOvaGo-1" target="WpmsXWC_hY4c3spOvaGo-20">
          <mxGeometry relative="1" as="geometry" />
        </mxCell>
        <mxCell id="WpmsXWC_hY4c3spOvaGo-1" value="unitsWithQUDTInfo.csv" style="rounded=1;whiteSpace=wrap;html=1;fontSize=12;glass=0;strokeWidth=1;shadow=0;" vertex="1" parent="WIyWlLk6GJQsqaUBKTNV-1">
          <mxGeometry x="590" y="790" width="200" height="40" as="geometry" />
        </mxCell>
        <mxCell id="WpmsXWC_hY4c3spOvaGo-33" style="edgeStyle=orthogonalEdgeStyle;rounded=0;orthogonalLoop=1;jettySize=auto;html=1;exitX=0.5;exitY=1;exitDx=0;exitDy=0;entryX=0.5;entryY=0;entryDx=0;entryDy=0;curved=1;" edge="1" parent="WIyWlLk6GJQsqaUBKTNV-1" source="WpmsXWC_hY4c3spOvaGo-2" target="WpmsXWC_hY4c3spOvaGo-18">
          <mxGeometry relative="1" as="geometry" />
        </mxCell>
        <mxCell id="WpmsXWC_hY4c3spOvaGo-41" style="edgeStyle=orthogonalEdgeStyle;rounded=0;orthogonalLoop=1;jettySize=auto;html=1;exitX=0.5;exitY=1;exitDx=0;exitDy=0;entryX=0.5;entryY=0;entryDx=0;entryDy=0;curved=1;" edge="1" parent="WIyWlLk6GJQsqaUBKTNV-1" source="WpmsXWC_hY4c3spOvaGo-2" target="WpmsXWC_hY4c3spOvaGo-19">
          <mxGeometry relative="1" as="geometry" />
        </mxCell>
        <mxCell id="WpmsXWC_hY4c3spOvaGo-2" value="PseudoUnitsAll.csv" style="rounded=1;whiteSpace=wrap;html=1;fontSize=12;glass=0;strokeWidth=1;shadow=0;" vertex="1" parent="WIyWlLk6GJQsqaUBKTNV-1">
          <mxGeometry x="590" y="300" width="200" height="40" as="geometry" />
        </mxCell>
        <mxCell id="WpmsXWC_hY4c3spOvaGo-30" style="edgeStyle=orthogonalEdgeStyle;rounded=0;orthogonalLoop=1;jettySize=auto;html=1;exitX=0.5;exitY=1;exitDx=0;exitDy=0;curved=1;" edge="1" parent="WIyWlLk6GJQsqaUBKTNV-1" source="WpmsXWC_hY4c3spOvaGo-3" target="WpmsXWC_hY4c3spOvaGo-29">
          <mxGeometry relative="1" as="geometry" />
        </mxCell>
        <mxCell id="WpmsXWC_hY4c3spOvaGo-3" value="IntegratedUnitSummaryLowerCase.csv" style="rounded=1;whiteSpace=wrap;html=1;fontSize=12;glass=0;strokeWidth=1;shadow=0;" vertex="1" parent="WIyWlLk6GJQsqaUBKTNV-1">
          <mxGeometry x="580" y="153" width="220" height="40" as="geometry" />
        </mxCell>
        <mxCell id="WpmsXWC_hY4c3spOvaGo-27" style="edgeStyle=orthogonalEdgeStyle;rounded=0;orthogonalLoop=1;jettySize=auto;html=1;exitX=0.5;exitY=1;exitDx=0;exitDy=0;entryX=0.5;entryY=0;entryDx=0;entryDy=0;curved=1;" edge="1" parent="WIyWlLk6GJQsqaUBKTNV-1" source="WpmsXWC_hY4c3spOvaGo-4" target="WpmsXWC_hY4c3spOvaGo-16">
          <mxGeometry relative="1" as="geometry" />
        </mxCell>
        <mxCell id="WpmsXWC_hY4c3spOvaGo-4" value="UnitUseSummary.csv" style="rounded=1;whiteSpace=wrap;html=1;fontSize=12;glass=0;strokeWidth=1;shadow=0;" vertex="1" parent="WIyWlLk6GJQsqaUBKTNV-1">
          <mxGeometry x="590" y="40" width="200" height="40" as="geometry" />
        </mxCell>
        <mxCell id="WpmsXWC_hY4c3spOvaGo-22" style="edgeStyle=orthogonalEdgeStyle;rounded=0;orthogonalLoop=1;jettySize=auto;html=1;exitX=1;exitY=0.5;exitDx=0;exitDy=0;entryX=0;entryY=0.5;entryDx=0;entryDy=0;" edge="1" parent="WIyWlLk6GJQsqaUBKTNV-1" source="WpmsXWC_hY4c3spOvaGo-5" target="WpmsXWC_hY4c3spOvaGo-0">
          <mxGeometry relative="1" as="geometry" />
        </mxCell>
        <mxCell id="WpmsXWC_hY4c3spOvaGo-5" value="EDI EML corpus" style="rounded=1;whiteSpace=wrap;html=1;fontSize=12;glass=0;strokeWidth=1;shadow=0;" vertex="1" parent="WIyWlLk6GJQsqaUBKTNV-1">
          <mxGeometry x="50" y="40" width="200" height="40" as="geometry" />
        </mxCell>
        <mxCell id="WpmsXWC_hY4c3spOvaGo-24" style="edgeStyle=orthogonalEdgeStyle;rounded=0;orthogonalLoop=1;jettySize=auto;html=1;exitX=1;exitY=0.5;exitDx=0;exitDy=0;entryX=0;entryY=0.5;entryDx=0;entryDy=0;curved=1;" edge="1" parent="WIyWlLk6GJQsqaUBKTNV-1" source="WpmsXWC_hY4c3spOvaGo-6" target="WpmsXWC_hY4c3spOvaGo-16">
          <mxGeometry relative="1" as="geometry" />
        </mxCell>
        <mxCell id="WpmsXWC_hY4c3spOvaGo-6" value="NEON units" style="rounded=1;whiteSpace=wrap;html=1;fontSize=12;glass=0;strokeWidth=1;shadow=0;" vertex="1" parent="WIyWlLk6GJQsqaUBKTNV-1">
          <mxGeometry x="50" y="113" width="200" height="40" as="geometry" />
        </mxCell>
        <mxCell id="WpmsXWC_hY4c3spOvaGo-26" style="edgeStyle=orthogonalEdgeStyle;rounded=0;orthogonalLoop=1;jettySize=auto;html=1;exitX=1;exitY=0.5;exitDx=0;exitDy=0;curved=1;" edge="1" parent="WIyWlLk6GJQsqaUBKTNV-1" source="WpmsXWC_hY4c3spOvaGo-7" target="WpmsXWC_hY4c3spOvaGo-16">
          <mxGeometry relative="1" as="geometry" />
        </mxCell>
        <mxCell id="WpmsXWC_hY4c3spOvaGo-7" value="DataONE units" style="rounded=1;whiteSpace=wrap;html=1;fontSize=12;glass=0;strokeWidth=1;shadow=0;" vertex="1" parent="WIyWlLk6GJQsqaUBKTNV-1">
          <mxGeometry x="50" y="193" width="200" height="40" as="geometry" />
        </mxCell>
        <mxCell id="WpmsXWC_hY4c3spOvaGo-31" style="edgeStyle=orthogonalEdgeStyle;rounded=0;orthogonalLoop=1;jettySize=auto;html=1;exitX=1;exitY=0.5;exitDx=0;exitDy=0;entryX=0;entryY=0.5;entryDx=0;entryDy=0;" edge="1" parent="WIyWlLk6GJQsqaUBKTNV-1" source="WpmsXWC_hY4c3spOvaGo-8" target="WpmsXWC_hY4c3spOvaGo-29">
          <mxGeometry relative="1" as="geometry" />
        </mxCell>
        <mxCell id="WpmsXWC_hY4c3spOvaGo-52" style="edgeStyle=orthogonalEdgeStyle;rounded=0;orthogonalLoop=1;jettySize=auto;html=1;exitX=0.5;exitY=1;exitDx=0;exitDy=0;entryX=0;entryY=0.5;entryDx=0;entryDy=0;curved=1;" edge="1" parent="WIyWlLk6GJQsqaUBKTNV-1" source="WpmsXWC_hY4c3spOvaGo-8" target="WpmsXWC_hY4c3spOvaGo-18">
          <mxGeometry relative="1" as="geometry" />
        </mxCell>
        <mxCell id="WpmsXWC_hY4c3spOvaGo-8" value="SingularAbbrevsTablewQUDT.xlsx" style="rounded=1;html=1;fontSize=12;glass=0;strokeWidth=1;shadow=0;whiteSpace=wrap;" vertex="1" parent="WIyWlLk6GJQsqaUBKTNV-1">
          <mxGeometry x="50" y="300" width="200" height="40" as="geometry" />
        </mxCell>
        <mxCell id="WpmsXWC_hY4c3spOvaGo-43" style="edgeStyle=orthogonalEdgeStyle;rounded=0;orthogonalLoop=1;jettySize=auto;html=1;exitX=0.5;exitY=1;exitDx=0;exitDy=0;entryX=0.5;entryY=0;entryDx=0;entryDy=0;" edge="1" parent="WIyWlLk6GJQsqaUBKTNV-1" source="WpmsXWC_hY4c3spOvaGo-9" target="WpmsXWC_hY4c3spOvaGo-21">
          <mxGeometry relative="1" as="geometry" />
        </mxCell>
        <mxCell id="WpmsXWC_hY4c3spOvaGo-9" value="QUDT RDF URL" style="rounded=1;whiteSpace=wrap;html=1;fontSize=12;glass=0;strokeWidth=1;shadow=0;" vertex="1" parent="WIyWlLk6GJQsqaUBKTNV-1">
          <mxGeometry x="50" y="480" width="200" height="40" as="geometry" />
        </mxCell>
        <mxCell id="WpmsXWC_hY4c3spOvaGo-46" style="edgeStyle=orthogonalEdgeStyle;rounded=0;orthogonalLoop=1;jettySize=auto;html=1;exitX=1;exitY=0.5;exitDx=0;exitDy=0;entryX=0;entryY=0.5;entryDx=0;entryDy=0;curved=1;" edge="1" parent="WIyWlLk6GJQsqaUBKTNV-1" source="WpmsXWC_hY4c3spOvaGo-10" target="WpmsXWC_hY4c3spOvaGo-19">
          <mxGeometry relative="1" as="geometry" />
        </mxCell>
        <mxCell id="WpmsXWC_hY4c3spOvaGo-10" value="UCUMCodes.csv" style="rounded=1;whiteSpace=wrap;html=1;fontSize=12;glass=0;strokeWidth=1;shadow=0;" vertex="1" parent="WIyWlLk6GJQsqaUBKTNV-1">
          <mxGeometry x="180" y="700" width="200" height="40" as="geometry" />
        </mxCell>
        <mxCell id="WpmsXWC_hY4c3spOvaGo-49" style="edgeStyle=orthogonalEdgeStyle;rounded=0;orthogonalLoop=1;jettySize=auto;html=1;exitX=1;exitY=0.5;exitDx=0;exitDy=0;entryX=0.5;entryY=1;entryDx=0;entryDy=0;curved=1;" edge="1" parent="WIyWlLk6GJQsqaUBKTNV-1" source="WpmsXWC_hY4c3spOvaGo-11" target="WpmsXWC_hY4c3spOvaGo-19">
          <mxGeometry relative="1" as="geometry" />
        </mxCell>
        <mxCell id="WpmsXWC_hY4c3spOvaGo-11" value="QUDTLabels.csv" style="rounded=1;whiteSpace=wrap;html=1;fontSize=12;glass=0;strokeWidth=1;shadow=0;" vertex="1" parent="WIyWlLk6GJQsqaUBKTNV-1">
          <mxGeometry x="50" y="790" width="200" height="40" as="geometry" />
        </mxCell>
        <mxCell id="WpmsXWC_hY4c3spOvaGo-37" style="edgeStyle=orthogonalEdgeStyle;rounded=0;orthogonalLoop=1;jettySize=auto;html=1;exitX=1;exitY=0.5;exitDx=0;exitDy=0;entryX=0;entryY=0.5;entryDx=0;entryDy=0;curved=1;" edge="1" parent="WIyWlLk6GJQsqaUBKTNV-1" source="WpmsXWC_hY4c3spOvaGo-12" target="WpmsXWC_hY4c3spOvaGo-20">
          <mxGeometry relative="1" as="geometry" />
        </mxCell>
        <mxCell id="WpmsXWC_hY4c3spOvaGo-12" value="EML document" style="rounded=1;whiteSpace=wrap;html=1;fontSize=12;glass=0;strokeWidth=1;shadow=0;" vertex="1" parent="WIyWlLk6GJQsqaUBKTNV-1">
          <mxGeometry x="50" y="890" width="200" height="40" as="geometry" />
        </mxCell>
        <mxCell id="WpmsXWC_hY4c3spOvaGo-13" value="annotated EML document" style="rounded=1;whiteSpace=wrap;html=1;fontSize=12;glass=0;strokeWidth=1;shadow=0;" vertex="1" parent="WIyWlLk6GJQsqaUBKTNV-1">
          <mxGeometry x="590" y="890" width="200" height="40" as="geometry" />
        </mxCell>
        <mxCell id="WpmsXWC_hY4c3spOvaGo-28" style="edgeStyle=orthogonalEdgeStyle;rounded=0;orthogonalLoop=1;jettySize=auto;html=1;exitX=1;exitY=0.5;exitDx=0;exitDy=0;entryX=0;entryY=0.5;entryDx=0;entryDy=0;curved=1;" edge="1" parent="WIyWlLk6GJQsqaUBKTNV-1" source="WpmsXWC_hY4c3spOvaGo-16" target="WpmsXWC_hY4c3spOvaGo-3">
          <mxGeometry relative="1" as="geometry" />
        </mxCell>
        <mxCell id="WpmsXWC_hY4c3spOvaGo-16" value="IntegrateUnitAnalysis1.r" style="ellipse;whiteSpace=wrap;html=1;" vertex="1" parent="WIyWlLk6GJQsqaUBKTNV-1">
          <mxGeometry x="320" y="133" width="200" height="80" as="geometry" />
        </mxCell>
        <mxCell id="WpmsXWC_hY4c3spOvaGo-35" style="edgeStyle=orthogonalEdgeStyle;rounded=0;orthogonalLoop=1;jettySize=auto;html=1;exitX=0.5;exitY=1;exitDx=0;exitDy=0;entryX=0.5;entryY=0;entryDx=0;entryDy=0;curved=1;" edge="1" parent="WIyWlLk6GJQsqaUBKTNV-1" source="WpmsXWC_hY4c3spOvaGo-18" target="WpmsXWC_hY4c3spOvaGo-34">
          <mxGeometry relative="1" as="geometry" />
        </mxCell>
        <mxCell id="WpmsXWC_hY4c3spOvaGo-18" value="LTERUnitAnalysis4.r" style="ellipse;whiteSpace=wrap;html=1;" vertex="1" parent="WIyWlLk6GJQsqaUBKTNV-1">
          <mxGeometry x="320" y="420" width="200" height="80" as="geometry" />
        </mxCell>
        <mxCell id="WpmsXWC_hY4c3spOvaGo-51" style="edgeStyle=orthogonalEdgeStyle;rounded=0;orthogonalLoop=1;jettySize=auto;html=1;exitX=1;exitY=0.5;exitDx=0;exitDy=0;entryX=0.5;entryY=0;entryDx=0;entryDy=0;curved=1;" edge="1" parent="WIyWlLk6GJQsqaUBKTNV-1" source="WpmsXWC_hY4c3spOvaGo-19" target="WpmsXWC_hY4c3spOvaGo-1">
          <mxGeometry relative="1" as="geometry" />
        </mxCell>
        <mxCell id="WpmsXWC_hY4c3spOvaGo-19" value="LTERUnitCreateDataTables1.r" style="ellipse;whiteSpace=wrap;html=1;" vertex="1" parent="WIyWlLk6GJQsqaUBKTNV-1">
          <mxGeometry x="470" y="680" width="200" height="80" as="geometry" />
        </mxCell>
        <mxCell id="WpmsXWC_hY4c3spOvaGo-38" style="edgeStyle=orthogonalEdgeStyle;rounded=0;orthogonalLoop=1;jettySize=auto;html=1;exitX=1;exitY=0.5;exitDx=0;exitDy=0;entryX=0;entryY=0.5;entryDx=0;entryDy=0;curved=1;" edge="1" parent="WIyWlLk6GJQsqaUBKTNV-1" source="WpmsXWC_hY4c3spOvaGo-20" target="WpmsXWC_hY4c3spOvaGo-13">
          <mxGeometry relative="1" as="geometry" />
        </mxCell>
        <mxCell id="WpmsXWC_hY4c3spOvaGo-20" value="LTERUnitCreateAnnotations1.r" style="ellipse;whiteSpace=wrap;html=1;" vertex="1" parent="WIyWlLk6GJQsqaUBKTNV-1">
          <mxGeometry x="320" y="870" width="200" height="80" as="geometry" />
        </mxCell>
        <mxCell id="WpmsXWC_hY4c3spOvaGo-44" style="edgeStyle=orthogonalEdgeStyle;rounded=0;orthogonalLoop=1;jettySize=auto;html=1;exitX=0.5;exitY=1;exitDx=0;exitDy=0;entryX=0.5;entryY=0;entryDx=0;entryDy=0;curved=1;" edge="1" parent="WIyWlLk6GJQsqaUBKTNV-1" source="WpmsXWC_hY4c3spOvaGo-21" target="WpmsXWC_hY4c3spOvaGo-11">
          <mxGeometry relative="1" as="geometry" />
        </mxCell>
        <mxCell id="WpmsXWC_hY4c3spOvaGo-45" style="edgeStyle=orthogonalEdgeStyle;rounded=0;orthogonalLoop=1;jettySize=auto;html=1;exitX=0.5;exitY=1;exitDx=0;exitDy=0;entryX=0.5;entryY=0;entryDx=0;entryDy=0;curved=1;" edge="1" parent="WIyWlLk6GJQsqaUBKTNV-1" source="WpmsXWC_hY4c3spOvaGo-21" target="WpmsXWC_hY4c3spOvaGo-10">
          <mxGeometry relative="1" as="geometry" />
        </mxCell>
        <mxCell id="WpmsXWC_hY4c3spOvaGo-21" value="LTERUnitQUDT_UCUM_Codes1.r" style="ellipse;whiteSpace=wrap;html=1;" vertex="1" parent="WIyWlLk6GJQsqaUBKTNV-1">
          <mxGeometry x="50" y="570" width="200" height="80" as="geometry" />
        </mxCell>
        <mxCell id="WpmsXWC_hY4c3spOvaGo-32" style="edgeStyle=orthogonalEdgeStyle;rounded=0;orthogonalLoop=1;jettySize=auto;html=1;exitX=1;exitY=0.5;exitDx=0;exitDy=0;entryX=0;entryY=0.5;entryDx=0;entryDy=0;" edge="1" parent="WIyWlLk6GJQsqaUBKTNV-1" source="WpmsXWC_hY4c3spOvaGo-29" target="WpmsXWC_hY4c3spOvaGo-2">
          <mxGeometry relative="1" as="geometry" />
        </mxCell>
        <mxCell id="WpmsXWC_hY4c3spOvaGo-29" value="LTERUnitAnalysis3.r" style="ellipse;whiteSpace=wrap;html=1;" vertex="1" parent="WIyWlLk6GJQsqaUBKTNV-1">
          <mxGeometry x="320" y="280" width="200" height="80" as="geometry" />
        </mxCell>
        <mxCell id="WpmsXWC_hY4c3spOvaGo-50" style="edgeStyle=orthogonalEdgeStyle;rounded=0;orthogonalLoop=1;jettySize=auto;html=1;exitX=1;exitY=0.5;exitDx=0;exitDy=0;entryX=0.5;entryY=0;entryDx=0;entryDy=0;curved=1;" edge="1" parent="WIyWlLk6GJQsqaUBKTNV-1" source="WpmsXWC_hY4c3spOvaGo-34" target="WpmsXWC_hY4c3spOvaGo-19">
          <mxGeometry relative="1" as="geometry" />
        </mxCell>
        <mxCell id="WpmsXWC_hY4c3spOvaGo-34" value="UnitswQUDT.csv" style="rounded=1;whiteSpace=wrap;html=1;fontSize=12;glass=0;strokeWidth=1;shadow=0;" vertex="1" parent="WIyWlLk6GJQsqaUBKTNV-1">
          <mxGeometry x="320" y="560" width="200" height="40" as="geometry" />
        </mxCell>
      </root>
    </mxGraphModel>
  </diagram>
</mxfile>
